<?xml version="1.0"?>
<svg width="1320" height="1000.0000000000001" xmlns="http://www.w3.org/2000/svg" xmlns:svg="http://www.w3.org/2000/svg" version="1.1">
 <g class="layer">
  <title>Layer 1</title>
  <path d="m2.57,206.43c434.28,0 868.56,0 1316,0c0,219.45 0,438.9 0,665c-434.28,0 -868.56,0 -1316,0c0,-219.45 0,-438.9 0,-665z" fill="#FEFEFE" id="svg_1"/>
  <path d="m308,454c3.02,1.45 5.12,2.87 7.48,5.26c0.99,0.99 0.99,0.99 2,2c0.71,0.71 1.41,1.42 2.13,2.15c0.73,0.73 1.45,1.46 2.2,2.22c2.32,2.32 4.63,4.66 6.94,7c1.57,1.58 3.14,3.16 4.71,4.74c3.86,3.87 7.7,7.75 11.54,11.63c-4.38,5.24 -9,10.14 -13.84,14.95c-0.76,0.77 -1.52,1.53 -2.31,2.31c-2.5,2.5 -5,4.99 -7.5,7.49c-1.74,1.73 -3.48,3.47 -5.22,5.21c-4.56,4.56 -9.13,9.12 -13.7,13.68c-4.67,4.66 -9.33,9.32 -14,13.98c-9.14,9.13 -18.28,18.25 -27.43,27.38c-2.92,-1.4 -4.99,-2.75 -7.27,-5.06c-0.61,-0.61 -1.23,-1.23 -1.86,-1.87c-0.65,-0.66 -1.3,-1.33 -1.97,-2.01c-1.02,-1.03 -1.02,-1.03 -2.06,-2.07c-2.16,-2.18 -4.31,-4.37 -6.47,-6.55c-2.16,-2.19 -4.32,-4.38 -6.49,-6.56c-1.34,-1.36 -2.69,-2.73 -4.03,-4.09c-0.61,-0.62 -1.21,-1.23 -1.84,-1.86c-0.53,-0.54 -1.07,-1.09 -1.62,-1.65c-1.38,-1.39 -1.38,-1.39 -3.39,-2.28c1.38,-3.1 2.96,-5.21 5.35,-7.59c0.7,-0.7 1.39,-1.39 2.1,-2.11c0.76,-0.75 1.52,-1.51 2.3,-2.28c0.8,-0.8 1.6,-1.6 2.43,-2.43c2.65,-2.64 5.3,-5.28 7.95,-7.92c1.84,-1.83 3.67,-3.66 5.51,-5.5c4.34,-4.33 8.68,-8.65 13.03,-12.98c4.94,-4.92 9.88,-9.85 14.82,-14.79c10.17,-10.14 20.34,-20.27 30.51,-30.4z" fill="#024BAC" id="svg_2"/>
  <path d="m656.24,500.29c7.6,5.15 12.34,12.95 14.76,21.71c0.39,2.98 0.43,5.88 0.37,8.88c-0.01,1.18 -0.01,1.18 -0.02,2.39c-0.22,8.74 -1.95,15.69 -7.35,22.73c-0.87,1.27 -0.87,1.27 -1.75,2.57c-7.09,7.67 -16.37,10.54 -26.56,11c-9.82,-0.19 -16.82,-3.69 -23.69,-10.57c-0.33,16.5 -0.66,33 -1,50c-4.62,0 -9.24,0 -14,0c0,-36.96 0,-73.92 0,-112c4.62,0 9.24,0 14,0c0.33,2.64 0.66,5.28 1,8c0.97,-0.9 1.94,-1.81 2.94,-2.75c12.2,-10.23 27.75,-9.73 41.3,-1.96z" fill="#064EAE" id="svg_3"/>
  <path d="m884.31,498.45c7.8,6.17 13.46,13.33 15.69,23.13c0.94,11.2 0.83,22.39 -6.06,31.81c-7.17,8.31 -14.46,13.34 -25.43,14.58c-9.15,0.4 -15.92,-1.2 -23.51,-6.39c-1.32,-1.33 -2.64,-2.65 -4,-4c-0.33,16.5 -0.66,33 -1,50c-4.62,0 -9.24,0 -14,0c0,-36.96 0,-73.93 0,-112.01c4.29,0 8.58,0 13,0c0.33,2.98 0.66,5.94 1,9.01c0.57,-0.55 1.13,-1.09 1.72,-1.65c12.37,-11.46 27.59,-12.97 42.59,-4.48z" fill="#054EAD" id="svg_4" transform="matrix(1 0 0 1 0 0)"/>
  <path d="m435,462c53.64,0 53.64,0 62,7c5.37,5.54 8.37,10.18 9,18c0.09,0.89 0.18,1.78 0.27,2.7c0.47,8.31 -1.51,14.46 -6.27,21.3c-6.69,6.98 -15.77,9.78 -25.25,10.11c-1.71,0 -1.71,0 -3.46,-0.01c-1.12,0 -2.24,-0.01 -3.4,-0.01c-1.41,-0.01 -2.82,-0.02 -4.26,-0.03c-6.75,-0.03 -6.75,-0.03 -13.63,-0.06c0,15.18 0,30.36 0,46c-4.95,0 -9.9,0 -15,0c0,-34.65 0,-69.3 0,-105z" fill="#054EAD" id="svg_5"/>
  <path d="m736.86,497.68c8.43,5.19 14.6,12.54 17.51,22.13c0.85,5.67 0.63,11.45 0.63,17.19c-18.48,0 -36.96,0 -56,0c1.95,8.63 1.95,8.63 6.87,14c0.66,0.53 1.32,1.07 1.99,1.62c6.38,4.11 12.74,4.1 20.14,3.38c5.5,-1.63 9.24,-4.77 13,-9c3.94,1.66 6.79,4.22 10,7c-2.54,6.1 -8.75,10.17 -14.63,12.87c-10.58,3.53 -22.76,4.17 -32.87,-0.87c-9.83,-5.54 -14.69,-12.47 -18.5,-23c-2.52,-9.93 -1.87,-19.99 3,-29c2,-3.32 2,-3.32 4,-6c0.53,-0.83 1.07,-1.65 1.62,-2.5c10.58,-11.14 29.34,-14.59 43.24,-7.82z" fill="#064EAD" id="svg_6"/>
  <path d="m565.21,497.74c0.59,0.42 1.18,0.83 1.79,1.26c0.64,0.43 1.28,0.87 1.94,1.32c4.47,3.41 7.2,7.32 9.06,12.68c0.52,4.2 0.46,8.36 0.39,12.59c-0.01,1.19 -0.02,2.38 -0.02,3.6c-0.02,3.77 -0.07,7.54 -0.12,11.31c-0.02,2.56 -0.04,5.13 -0.06,7.69c-0.04,6.27 -0.11,12.54 -0.19,18.81c-3.96,0 -7.92,0 -12,0c-0.5,-4.46 -0.5,-4.46 -1,-9c-1.06,1.11 -1.06,1.11 -2.13,2.25c-7.71,7.37 -14.85,9.3 -25.33,9.12c-7.92,-0.83 -13.52,-4.54 -18.49,-10.63c-3.13,-5.17 -2.72,-11.93 -2.05,-17.74c2.35,-6.07 6.49,-10.43 12.43,-13.09c5.57,-2.28 10.26,-4.04 16.33,-4.01c1.12,0 2.23,0.01 3.39,0.01c1.16,0.01 2.33,0.02 3.53,0.03c1.18,0 2.36,0 3.57,0.01c2.92,0.01 5.83,0.03 8.75,0.05c-0.11,-1.43 -0.23,-2.86 -0.36,-4.29c-0.06,-0.79 -0.13,-1.59 -0.19,-2.41c-0.76,-3.84 -2.68,-5.6 -5.45,-8.3c-3.6,-2.4 -6.39,-2.46 -10.57,-2.5c-0.71,-0.01 -1.43,-0.02 -2.16,-0.02c-5.83,0.13 -9.6,1.71 -14.26,5.3c-2.01,1.22 -2.01,1.22 -4.1,1.08c-3.39,-1.53 -4.8,-3.84 -6.91,-6.86c1.38,-4.17 3.47,-4.62 7.31,-6.63c1.15,-0.61 2.3,-1.22 3.49,-1.85c9.18,-4.37 24.47,-4.87 33.41,0.22z" fill="#054DAD" id="svg_7"/>
  <path d="m960.19,496.56c6.88,3.9 12.63,8.6 14.81,16.44c0.4,4.17 0.35,8.31 0.3,12.49c-0.01,1.19 -0.01,2.38 -0.02,3.61c-0.01,3.78 -0.05,7.56 -0.09,11.34c-0.02,2.56 -0.03,5.13 -0.04,7.7c-0.03,6.29 -0.09,12.57 -0.15,18.86c-3.96,0 -7.92,0 -12,0c-0.49,-4.46 -0.49,-4.46 -1,-9c-0.68,1.08 -0.68,1.08 -1.37,2.19c-4.65,4.98 -11.81,8.46 -18.63,9.08c-9.98,0.29 -16.26,-1.42 -24,-7.71c-4.22,-5.4 -4.5,-10.91 -4.38,-17.59c0.73,-5.71 3.66,-9.2 7.57,-13.22c6.54,-4.07 13.87,-6.89 21.57,-6.85c1.12,0 2.24,0.01 3.39,0.01c1.17,0.01 2.34,0.02 3.54,0.03c1.18,0 2.36,0 3.57,0.01c2.92,0.01 5.83,0.03 8.74,0.05c-0.1,-1.43 -0.22,-2.86 -0.35,-4.29c-0.06,-0.79 -0.13,-1.59 -0.2,-2.41c-0.75,-3.84 -2.68,-5.6 -5.45,-8.3c-3.6,-2.4 -6.38,-2.46 -10.56,-2.5c-0.72,-0.01 -1.43,-0.02 -2.17,-0.02c-5.82,0.13 -9.59,1.71 -14.25,5.3c-2.02,1.22 -2.02,1.22 -4.11,1.08c-3.38,-1.53 -4.79,-3.84 -6.91,-6.86c1,-3 1,-3 4.06,-4.79c1.27,-0.62 2.54,-1.24 3.82,-1.84c0.64,-0.31 1.27,-0.62 1.93,-0.94c9.27,-4.49 22.58,-5.92 32.38,-1.87z" fill="#054DAD" id="svg_8"/>
  <path d="m215,549c4.65,3.88 9.05,7.92 13.3,12.24c0.84,0.85 0.84,0.85 1.71,1.71c1.77,1.79 3.54,3.57 5.3,5.36c2.35,2.38 4.7,4.75 7.05,7.12c0.54,0.54 1.08,1.09 1.63,1.65c2.74,2.81 2.74,2.81 6.01,4.92c0,0.66 0,1.32 0,2c-1.23,0.03 -2.46,0.05 -3.73,0.08c-1.63,0.05 -3.26,0.11 -4.89,0.17c-0.81,0.01 -1.62,0.03 -2.45,0.04c-5.59,0.23 -8.25,1.51 -12.93,4.71c-1.16,-0.03 -2.32,-0.06 -3.51,-0.09c-3.98,0.1 -5.24,1.07 -7.97,3.9c-0.46,0.52 -0.92,1.03 -1.4,1.57c-0.48,0.5 -0.96,1.01 -1.46,1.53c-1.83,1.94 -3.46,3.7 -4.66,6.09c1.77,-0.04 1.77,-0.04 3.57,-0.09c6.82,0.01 13.56,0.82 20.33,1.54c1.49,0.16 2.98,0.32 4.47,0.47c4.02,0.42 8.05,0.85 12.07,1.28c4.22,0.45 8.44,0.89 12.66,1.33c7.08,0.75 14.16,1.5 21.25,2.25c8.18,0.87 16.36,1.73 24.54,2.59c8.73,0.92 17.45,1.84 26.18,2.77c2.51,0.26 5.02,0.53 7.53,0.79c3.94,0.42 7.88,0.83 11.83,1.25c1.44,0.16 2.89,0.31 4.33,0.46c1.98,0.21 3.95,0.42 5.93,0.63c1.1,0.12 2.21,0.24 3.35,0.36c2.69,0.34 5.31,0.8 7.96,1.37c0,0.33 0,0.66 0,1c-61.05,0 -122.1,0 -185,0c0,-19 0,-19 4.81,-25.42c1.61,-1.6 1.61,-1.6 3.01,-2.73c0.52,-0.43 1.04,-0.86 1.58,-1.3c0.53,-0.43 1.06,-0.86 1.6,-1.3c1.59,-1.35 3.15,-2.72 4.71,-4.11c1.4,-1.24 2.83,-2.43 4.27,-3.63c2.66,-3.3 2.24,-5.37 2.02,-9.51c0.64,-0.95 1.29,-1.9 1.95,-2.88c2.68,-4.08 2.71,-7.23 2.8,-11.99c0.04,-1.18 0.04,-1.18 0.09,-2.38c0.07,-1.92 0.12,-3.83 0.16,-5.75z" fill="#0B52AF" id="svg_9"/>
  <path d="m1050,455c4.29,0 8.58,0 13,0c0.33,16.5 0.66,33 1,50c2.64,-2.31 5.28,-4.62 8,-7c6.68,-4.23 14.31,-3.84 22,-3c6.59,1.86 10.88,5.23 14.84,10.74c3.57,6.96 3.43,13.66 3.36,21.32c-0.01,1.14 -0.01,2.29 -0.01,3.47c-0.01,3.63 -0.04,7.27 -0.06,10.91c-0.02,2.47 -0.02,4.94 -0.03,7.42c-0.02,6.05 -0.06,12.09 -0.1,18.14c-4.29,0 -8.58,0 -13,0c-0.01,-2.07 -0.01,-2.07 -0.03,-4.19c-0.04,-5.15 -0.1,-10.3 -0.18,-15.45c-0.03,-2.23 -0.05,-4.45 -0.06,-6.68c-0.02,-3.2 -0.07,-6.41 -0.12,-9.62c0,-0.98 0,-1.97 0,-2.99c-0.14,-6.42 -1.26,-10.56 -4.61,-16.07c-3.35,-2.99 -7.56,-4.22 -12,-4.5c-4.57,0.29 -8.37,1.7 -12,4.5c-3.8,4.67 -6.08,9.31 -6.21,15.38c-0.02,0.88 -0.04,1.76 -0.06,2.67c-0.02,1.42 -0.02,1.42 -0.05,2.87c-0.02,0.97 -0.04,1.94 -0.06,2.94c-0.06,3.11 -0.12,6.22 -0.18,9.33c-0.05,2.1 -0.09,4.21 -0.13,6.32c-0.11,5.16 -0.21,10.33 -0.31,15.49c-4.29,0 -8.58,0 -13,0c0,-36.96 0,-73.92 0,-112z" fill="#014AAC" id="svg_10"/>
  <path d="m878.93,512.58c6.21,6.88 7.6,13.16 7.35,22.27c-0.66,7.4 -3.61,13.27 -9.28,18.15c-4.61,2.85 -8.61,3.52 -13.94,3.44c-0.71,-0.01 -1.42,-0.02 -2.15,-0.03c-6.66,-0.21 -9.8,-1.4 -14.58,-6.02c-6.18,-6.62 -6.73,-13.14 -6.59,-21.97c0.49,-6.52 2.57,-11.73 7.26,-16.42c9.64,-6.81 22.52,-7.1 31.93,0.58z" fill="#FBFCFD" id="svg_11"/>
  <path d="m648,511c5.15,4.55 8.61,9.24 9.34,16.2c0.09,8.39 -0.17,16.16 -6.02,22.68c-1.72,1.53 -3.39,2.87 -5.32,4.12c-0.57,0.37 -1.14,0.75 -1.73,1.13c-5.94,2.28 -15.03,2.01 -20.96,-0.08c-5.97,-3.59 -9.57,-8.71 -12.31,-15.05c-0.85,-7.92 -1.1,-16.62 3.63,-23.31c8.9,-10.91 21.09,-12.97 33.37,-5.69z" fill="#FCFDFE" id="svg_12"/>
  <path d="m1000,477c4.29,0 8.58,0 13,0c0,6.6 0,13.2 0,20c6.27,0 12.54,0 19,0c0,3.63 0,7.26 0,11c-6.27,0 -12.54,0 -19,0c0.1,5.75 0.2,11.5 0.32,17.24c0.04,1.96 0.07,3.91 0.1,5.87c0.05,2.81 0.11,5.62 0.17,8.43c0.01,0.87 0.02,1.75 0.03,2.64c0.11,4.31 0.23,7.96 2.38,11.82c3.07,1.53 6.27,1.1 9.63,1.06c1.05,0 1.05,0 2.14,-0.01c1.74,-0.01 3.49,-0.03 5.23,-0.05c0,3.96 0,7.92 0,12c-18.24,4.17 -18.24,4.17 -26.12,-0.59c-4.02,-3.01 -6.49,-7.06 -7.31,-12.02c-0.15,-2.97 -0.13,-5.91 -0.06,-8.89c0.01,-1.61 0.01,-1.61 0.02,-3.26c0.03,-3.42 0.09,-6.83 0.16,-10.24c0.02,-2.32 0.05,-4.65 0.07,-6.97c0.05,-5.68 0.14,-11.35 0.24,-17.03c-5.28,0 -10.56,0 -16,0c0,-3.63 0,-7.26 0,-11c5.28,0 10.56,0 16,0c0,-6.6 0,-13.2 0,-20z" fill="#024BAC" id="svg_13"/>
  <path d="m345,430c5.73,2.01 9.99,6.71 14.25,10.88c0.51,0.49 1.02,0.98 1.54,1.49c4.31,4.37 7.86,8.87 8.65,15.13c-1.23,9.82 -7.55,15.89 -14.44,22.5c-3,-1.35 -5.08,-2.84 -7.39,-5.16c-0.64,-0.65 -1.28,-1.29 -1.94,-1.95c-0.68,-0.69 -1.36,-1.37 -2.06,-2.09c-0.71,-0.7 -1.41,-1.41 -2.14,-2.14c-2.24,-2.26 -4.48,-4.52 -6.72,-6.78c-1.52,-1.54 -3.05,-3.07 -4.57,-4.6c-3.73,-3.76 -7.46,-7.52 -11.18,-11.28c1.65,-3.5 3.55,-5.82 6.31,-8.56c0.76,-0.77 1.52,-1.53 2.3,-2.32c5.61,-4.98 10.02,-6.26 17.39,-5.12z" fill="#014BAC" id="svg_14"/>
  <path d="m805.75,494.81c0.96,0.01 1.93,0.01 2.92,0.02c2.33,0.17 2.33,0.17 3.33,1.17c0.07,2.35 0.08,4.71 0.06,7.06c-0.01,1.29 -0.02,2.58 -0.02,3.91c-0.02,1 -0.03,2 -0.04,3.03c-0.85,-0.05 -1.69,-0.1 -2.56,-0.14c-9.93,-0.37 -9.93,-0.37 -18.44,4.14c-4.09,4.99 -6.07,9.77 -6.21,16.22c-0.02,0.82 -0.04,1.64 -0.06,2.48c-0.01,0.88 -0.03,1.75 -0.05,2.66c-0.02,0.9 -0.04,1.81 -0.06,2.74c-0.06,2.88 -0.12,5.76 -0.18,8.65c-0.05,1.95 -0.09,3.91 -0.13,5.87c-0.11,4.79 -0.21,9.58 -0.31,14.38c-4.29,0 -8.58,0 -13,0c0,-23.1 0,-46.2 0,-70c4.29,0 8.58,0 13,0c0,3.3 0,6.6 0,10c0.66,0 1.32,0 2,0c0.09,-0.6 0.18,-1.19 0.27,-1.81c0.93,-2.79 2.11,-3.61 4.48,-5.32c0.68,-0.5 1.35,-0.99 2.05,-1.51c4.35,-2.7 7.83,-3.63 12.95,-3.55z" fill="#034CAD" id="svg_15"/>
  <path d="m449,474c6.16,-0.09 6.16,-0.09 12.44,-0.19c1.27,-0.02 2.55,-0.05 3.86,-0.08c7.54,-0.05 14.79,0.09 20.86,5.02c0.44,0.6 0.88,1.2 1.34,1.81c0.46,0.6 0.93,1.2 1.41,1.82c2.88,4.28 2.51,8.6 2.09,13.62c-1.67,4.73 -3.81,7.27 -8,10c-4.38,1.75 -8.01,2.24 -12.71,2.2c-1.68,-0.01 -1.68,-0.01 -3.4,-0.02c-2.11,-0.03 -2.11,-0.03 -4.26,-0.05c-4.5,-0.05 -9,-0.09 -13.63,-0.13c0,-11.22 0,-22.44 0,-34z" fill="#F8FAFC" id="svg_16"/>
  <path d="m962,533c0.39,7.02 0.56,13.99 -4.36,19.54c-6.06,5.35 -11.73,5.9 -19.53,5.78c-4.29,-0.44 -6.04,-1.33 -9.11,-4.32c-2.59,-3.41 -2.44,-6.84 -2,-11c3.24,-5.49 7.92,-7.55 13.87,-9.19c6.92,-1.44 14.11,-0.97 21.13,-0.81z" fill="#F9FAFD" id="svg_17"/>
  <path d="m565,533c0.39,7.05 0.52,13.92 -4.32,19.54c-5.96,5.36 -12.13,5.91 -19.83,5.78c-4.12,-0.46 -5.85,-1.48 -8.85,-4.32c-2.59,-3.41 -2.44,-6.84 -2,-11c3.24,-5.49 7.92,-7.55 13.87,-9.19c6.92,-1.44 14.11,-0.97 21.13,-0.81z" fill="#F9FBFD" id="svg_18"/>
  <path d="m731.56,507.5c4.05,2.48 6.91,6 8.44,10.5c0,2.64 0,5.28 0,8c-13.53,0 -27.06,0 -41,0c0,-7.43 1.68,-10.68 6.84,-15.84c7.29,-5.77 17.21,-6.24 25.72,-2.66z" fill="#FCFDFE" id="svg_19"/>
 </g>
</svg>