<?xml version="1.0" encoding="UTF-8"?>
<svg version="1.1" xmlns="http://www.w3.org/2000/svg" width="1320" height="1000">
<path d="M0 0 C435.6 0 871.2 0 1320 0 C1320 330 1320 660 1320 1000 C884.4 1000 448.8 1000 0 1000 C0 670 0 340 0 0 Z " fill="#FEFEFE" transform="translate(0,0)"/>
<path d="M0 0 C3.01657514 1.44585503 5.11993351 2.87470222 7.48339844 5.25634766 C8.47397247 6.24714828 8.47397247 6.24714828 9.48455811 7.25796509 C10.18574768 7.96947723 10.88693726 8.68098938 11.609375 9.4140625 C12.33618469 10.14370209 13.06299438 10.87334167 13.81182861 11.62509155 C16.12929198 13.9537388 18.4396995 16.28924826 20.75 18.625 C22.32115444 20.20618653 23.89276371 21.78692125 25.46484375 23.3671875 C29.31518761 27.23956799 33.15935641 31.11800143 37 35 C32.61618886 40.24471606 28.00291191 45.13522023 23.15869141 49.95483398 C22.39703674 50.71663467 21.63538208 51.47843536 20.85064697 52.26332092 C18.35331728 54.75995857 15.85247313 57.25304362 13.3515625 59.74609375 C11.61114002 61.48464954 9.87093939 63.22342744 8.13095093 64.9624176 C3.56623679 69.52332637 -1.00147327 74.08122314 -5.56982422 78.63848877 C-10.23717278 83.29558054 -14.90166724 87.95552903 -19.56640625 92.61523438 C-28.70815409 101.74627983 -37.85297437 110.87424173 -47 120 C-49.91760886 118.59775317 -51.98897208 117.25393088 -54.26806641 114.94311523 C-54.88195221 114.32585068 -55.49583801 113.70858612 -56.12832642 113.07261658 C-56.77949432 112.40798904 -57.43066223 111.74336151 -58.1015625 111.05859375 C-59.11807388 110.03428001 -59.11807388 110.03428001 -60.15512085 108.98927307 C-62.31655292 106.81004522 -64.47117408 104.62424361 -66.625 102.4375 C-68.78682946 100.2480717 -70.95009169 98.06010899 -73.11630249 95.87501526 C-74.4634863 94.51555439 -75.80798821 93.1534297 -77.14956665 91.78843689 C-77.75714813 91.17432449 -78.36472961 90.5602121 -78.99072266 89.92749023 C-79.52492828 89.38503159 -80.05913391 88.84257294 -80.60952759 88.28367615 C-81.99172435 86.88825494 -81.99172435 86.88825494 -84 86 C-82.62175583 82.9042446 -81.04096882 80.79313711 -78.64645386 78.40594482 C-77.9537439 77.71048553 -77.26103394 77.01502625 -76.54733276 76.29849243 C-75.78776276 75.54611298 -75.02819275 74.79373352 -74.24560547 74.01855469 C-73.44552063 73.2181778 -72.64543579 72.4178009 -71.82110596 71.59317017 C-69.17451263 68.94797053 -66.52090472 66.30992615 -63.8671875 63.671875 C-62.03115034 61.83956781 -60.19555414 60.00681866 -58.36038208 58.17364502 C-54.02212581 53.84224566 -49.67944496 49.51532896 -45.33458912 45.19055104 C-40.38752156 40.26584851 -35.44614083 35.3354567 -30.5052278 30.40458059 C-20.34313072 20.2633811 -10.17391755 10.12934016 0 0 Z " fill="#024BAC" transform="translate(308,454)"/>
<path d="M0 0 C7.59626707 5.145396 12.33831182 12.95264713 14.7578125 21.71484375 C15.14916542 24.6883225 15.18802807 27.59407814 15.1328125 30.58984375 C15.11976074 31.77175293 15.11976074 31.77175293 15.10644531 32.97753906 C14.8866959 41.72068367 13.16299757 48.67172381 7.7578125 55.71484375 C6.8915625 56.98328125 6.8915625 56.98328125 6.0078125 58.27734375 C-1.0773288 65.95291349 -10.36466028 68.81983232 -20.5546875 69.27734375 C-30.37472252 69.08963684 -37.36778702 65.58924423 -44.2421875 58.71484375 C-44.5721875 75.21484375 -44.9021875 91.71484375 -45.2421875 108.71484375 C-49.8621875 108.71484375 -54.4821875 108.71484375 -59.2421875 108.71484375 C-59.2421875 71.75484375 -59.2421875 34.79484375 -59.2421875 -3.28515625 C-54.6221875 -3.28515625 -50.0021875 -3.28515625 -45.2421875 -3.28515625 C-44.9121875 -0.64515625 -44.5821875 1.99484375 -44.2421875 4.71484375 C-43.2728125 3.80734375 -42.3034375 2.89984375 -41.3046875 1.96484375 C-29.1034574 -8.27157594 -13.55041919 -7.76670368 0 0 Z " fill="#064EAE" transform="translate(656.2421875,500.28515625)"/>
<path d="M0 0 C7.80085772 6.16812006 13.457772 13.33269225 15.6875 23.125 C16.63346109 34.33353897 16.51597456 45.51906042 9.62890625 54.94140625 C2.46127225 63.24522506 -4.82576948 68.27918369 -15.8046875 69.51953125 C-24.9538029 69.92179297 -31.71762874 68.32337342 -39.3125 63.125 C-40.6325 61.805 -41.9525 60.485 -43.3125 59.125 C-43.6425 75.625 -43.9725 92.125 -44.3125 109.125 C-48.9325 109.125 -53.5525 109.125 -58.3125 109.125 C-58.3125 72.165 -58.3125 35.205 -58.3125 -2.875 C-54.0225 -2.875 -49.7325 -2.875 -45.3125 -2.875 C-44.9825 0.095 -44.6525 3.065 -44.3125 6.125 C-43.74402344 5.58230469 -43.17554688 5.03960937 -42.58984375 4.48046875 C-30.22281085 -6.97813435 -14.99972214 -8.49040876 0 0 Z " fill="#054EAD" transform="translate(884.3125,499.875)"/>
<path d="M0 0 C53.63888889 0 53.63888889 0 62 7 C67.37337221 12.54169471 70.36634349 17.18490303 71 25 C71.08894531 25.89074219 71.17789063 26.78148437 71.26953125 27.69921875 C71.7368211 36.01263117 69.76273151 42.15990687 65 49 C58.31083018 55.97820802 49.2297371 58.78248778 39.74853516 59.11352539 C38.03609619 59.10567017 38.03609619 59.10567017 36.2890625 59.09765625 C35.16709473 59.09515869 34.04512695 59.09266113 32.88916016 59.09008789 C31.4819873 59.08098389 30.07481445 59.07187988 28.625 59.0625 C21.880625 59.0315625 21.880625 59.0315625 15 59 C15 74.18 15 89.36 15 105 C10.05 105 5.1 105 0 105 C0 70.35 0 35.7 0 0 Z " fill="#054EAD" transform="translate(435,462)"/>
<path d="M0 0 C8.42696346 5.19174897 14.5994479 12.54268138 17.51171875 22.12890625 C18.35800907 27.79905141 18.13671875 33.58345296 18.13671875 39.31640625 C-0.34328125 39.31640625 -18.82328125 39.31640625 -37.86328125 39.31640625 C-35.90666754 47.95433126 -35.90666754 47.95433126 -30.98828125 53.31640625 C-30.33085938 53.85265625 -29.6734375 54.38890625 -28.99609375 54.94140625 C-22.61709289 59.05387567 -16.26067713 59.04093958 -8.86328125 58.31640625 C-3.35717741 56.69179826 0.37686792 53.54623844 4.13671875 49.31640625 C8.07810953 50.98391773 10.92599995 53.54351274 14.13671875 56.31640625 C11.60024203 62.4227391 5.38965495 66.48568959 -0.48828125 69.19140625 C-11.07098619 72.71897456 -23.25222591 73.36100305 -33.36328125 68.31640625 C-43.18690068 62.77885302 -48.0542299 55.84638706 -51.86328125 45.31640625 C-54.38489814 35.39055123 -53.73039425 25.33389985 -48.86328125 16.31640625 C-46.86328125 13.00390625 -46.86328125 13.00390625 -44.86328125 10.31640625 C-44.32703125 9.49140625 -43.79078125 8.66640625 -43.23828125 7.81640625 C-32.66005197 -3.31857194 -13.90138463 -6.77367978 0 0 Z " fill="#064EAD" transform="translate(736.86328125,497.68359375)"/>
<path d="M0 0 C0.58910156 0.41507812 1.17820312 0.83015625 1.78515625 1.2578125 C2.42582031 1.69351562 3.06648437 2.12921875 3.7265625 2.578125 C8.19614396 5.9932958 10.93485352 9.90330113 12.78515625 15.2578125 C13.31223931 19.46467758 13.25246833 23.61738839 13.17578125 27.8515625 C13.17012146 29.03882935 13.16446167 30.22609619 13.15863037 31.44934082 C13.13634634 35.21925181 13.0861621 38.98819163 13.03515625 42.7578125 C13.01508107 45.32290288 12.99683209 47.88800825 12.98046875 50.453125 C12.93650725 56.72172497 12.86753262 62.98960441 12.78515625 69.2578125 C8.82515625 69.2578125 4.86515625 69.2578125 0.78515625 69.2578125 C0.29015625 64.8028125 0.29015625 64.8028125 -0.21484375 60.2578125 C-1.26671875 61.3715625 -1.26671875 61.3715625 -2.33984375 62.5078125 C-10.05093647 69.88364032 -17.19105886 71.80963798 -27.66796875 71.6328125 C-35.59061386 70.79517601 -41.19232594 67.09279893 -46.15625 61.00390625 C-49.29466254 55.82726268 -48.87814606 49.07102378 -48.21484375 43.2578125 C-45.85806075 37.19471932 -41.72274054 32.82876467 -35.78125 30.16796875 C-30.20588674 27.89412684 -25.52385496 26.12934036 -19.453125 26.16015625 C-18.33486328 26.16337891 -17.21660156 26.16660156 -16.06445312 26.16992188 C-14.89720703 26.17830078 -13.72996094 26.18667969 -12.52734375 26.1953125 C-11.34849609 26.19982422 -10.16964844 26.20433594 -8.95507812 26.20898438 C-6.04161586 26.22077977 -3.12825512 26.2372398 -0.21484375 26.2578125 C-0.31946337 24.82845161 -0.43970787 23.40022948 -0.56640625 21.97265625 C-0.63166504 21.17722412 -0.69692383 20.38179199 -0.76416016 19.56225586 C-1.51500521 15.72302159 -3.44388281 13.96279818 -6.21484375 11.2578125 C-9.81465245 8.85794003 -12.59775243 8.79686959 -16.77734375 8.7578125 C-17.49245117 8.75064209 -18.20755859 8.74347168 -18.94433594 8.73608398 C-24.77230976 8.86817947 -28.53700929 10.44850306 -33.19921875 14.04296875 C-35.21484375 15.2578125 -35.21484375 15.2578125 -37.3046875 15.12109375 C-40.68911937 13.59152434 -42.09740617 11.28272333 -44.21484375 8.2578125 C-42.82508415 4.0885337 -40.7417413 3.6400615 -36.90234375 1.6328125 C-35.75121094 1.02179688 -34.60007812 0.41078125 -33.4140625 -0.21875 C-24.23035502 -4.59194404 -8.94392691 -5.08541371 0 0 Z " fill="#054DAD" transform="translate(565.21484375,497.7421875)"/>
<path d="M0 0 C6.88285856 3.90166034 12.63348738 8.5950162 14.8125 16.4375 C15.21414141 20.60702639 15.16206632 24.74811582 15.10546875 28.93359375 C15.10122391 30.12227554 15.09697906 31.31095734 15.09260559 32.53565979 C15.07587251 36.31567457 15.0382289 40.09514755 15 43.875 C14.98494628 46.44465373 14.97125908 49.01431586 14.95898438 51.58398438 C14.92598635 57.86869693 14.87423995 64.15300674 14.8125 70.4375 C10.8525 70.4375 6.8925 70.4375 2.8125 70.4375 C2.3175 65.9825 2.3175 65.9825 1.8125 61.4375 C1.131875 62.5203125 1.131875 62.5203125 0.4375 63.625 C-4.21121828 68.60576959 -11.36811854 72.08983199 -18.19140625 72.7109375 C-28.16939042 72.99570983 -34.4492573 71.28732219 -42.1875 65 C-46.40511912 59.59617551 -46.68627506 54.09019293 -46.5703125 47.4140625 C-45.83572037 41.70223393 -42.90797166 38.20712799 -39 34.1875 C-32.46284154 30.11993473 -25.12986375 27.30073673 -17.42578125 27.33984375 C-16.30751953 27.34306641 -15.18925781 27.34628906 -14.03710938 27.34960938 C-12.86986328 27.35798828 -11.70261719 27.36636719 -10.5 27.375 C-9.32115234 27.37951172 -8.14230469 27.38402344 -6.92773438 27.38867188 C-4.01427211 27.40046727 -1.10091137 27.4169273 1.8125 27.4375 C1.70788038 26.00813911 1.58763588 24.57991698 1.4609375 23.15234375 C1.39567871 22.35691162 1.33041992 21.56147949 1.26318359 20.74194336 C0.51233854 16.90270909 -1.41653906 15.14248568 -4.1875 12.4375 C-7.7873087 10.03762753 -10.57040868 9.97655709 -14.75 9.9375 C-15.46510742 9.93032959 -16.18021484 9.92315918 -16.91699219 9.91577148 C-22.74496601 10.04786697 -26.50966554 11.62819056 -31.171875 15.22265625 C-33.1875 16.4375 -33.1875 16.4375 -35.27734375 16.30078125 C-38.66177562 14.77121184 -40.07006242 12.46241083 -42.1875 9.4375 C-41.1875 6.4375 -41.1875 6.4375 -38.1328125 4.6484375 C-36.86436551 4.02618048 -35.59064701 3.41458122 -34.3125 2.8125 C-33.67441406 2.50054687 -33.03632812 2.18859375 -32.37890625 1.8671875 C-23.11477722 -2.6198228 -9.80363554 -4.04594482 0 0 Z " fill="#054DAD" transform="translate(960.1875,496.5625)"/>
<path d="M0 0 C4.65286571 3.88355867 9.049896 7.92037286 13.30078125 12.23828125 C14.14445503 13.08763496 14.14445503 13.08763496 15.00517273 13.95414734 C16.77676744 15.73782086 18.54503304 17.52473677 20.3125 19.3125 C22.65989764 21.68645406 25.01056988 24.05709467 27.36328125 26.42578125 C27.89971756 26.9705159 28.43615387 27.51525055 28.98884583 28.07649231 C31.72620181 30.8906939 31.72620181 30.8906939 35 33 C35 33.66 35 34.32 35 35 C33.77023438 35.02578125 32.54046875 35.0515625 31.2734375 35.078125 C29.64059068 35.13443006 28.00777955 35.19177685 26.375 35.25 C25.56675781 35.26417969 24.75851563 35.27835938 23.92578125 35.29296875 C18.33528681 35.52022462 15.6773053 36.79636623 11 40 C9.84242188 39.97164062 8.68484375 39.94328125 7.4921875 39.9140625 C3.50754355 40.01211862 2.24692877 40.98425907 -0.4765625 43.8125 C-0.93804687 44.328125 -1.39953125 44.84375 -1.875 45.375 C-2.3596875 45.88289062 -2.844375 46.39078125 -3.34375 46.9140625 C-5.16795612 48.85037067 -6.80416884 50.60833768 -8 53 C-6.23332977 52.9550515 -6.23332977 52.9550515 -4.43096924 52.90919495 C2.3856922 52.91512047 9.12564205 53.72678296 15.89550781 54.45288086 C17.38619926 54.60928673 18.87693336 54.76528653 20.3677063 54.9209137 C24.39263396 55.34230649 28.4169248 55.76951307 32.44110966 56.19793391 C36.66115823 56.64632786 40.88172981 57.0897466 45.10223389 57.53382874 C52.18373088 58.27969215 59.26483757 59.02917278 66.34570312 59.78100586 C74.52792674 60.64975149 82.71065765 61.51357868 90.89369702 62.37460417 C99.61828311 63.29266161 108.34248968 64.21428627 117.0665884 65.13696218 C119.57655958 65.40217834 122.08660005 65.66673015 124.5966568 65.93113518 C128.54003517 66.34670384 132.48315306 66.76466412 136.42608261 67.18446922 C137.87198082 67.33805093 139.317963 67.49084438 140.76403427 67.64278793 C142.73917928 67.85046492 144.71398974 68.06131632 146.68878174 68.27232361 C147.79338367 68.38939132 148.89798561 68.50645903 150.03606033 68.62707424 C152.72885636 68.96588445 155.3481981 69.42756133 158 70 C158 70.33 158 70.66 158 71 C96.95 71 35.9 71 -27 71 C-27 52 -27 52 -22.1875 45.578125 C-20.58154297 43.97607422 -20.58154297 43.97607422 -19.1796875 42.8515625 C-18.65858398 42.42262695 -18.13748047 41.99369141 -17.60058594 41.55175781 C-17.07239258 41.12217773 -16.54419922 40.69259766 -16 40.25 C-14.41490672 38.89701312 -12.8456873 37.53050448 -11.29223633 36.14129639 C-9.89466929 34.90104499 -8.45802452 33.70523641 -7.01953125 32.51269531 C-4.36141857 29.20547872 -4.78096919 27.14063975 -5 23 C-4.35546875 22.04867187 -3.7109375 21.09734375 -3.046875 20.1171875 C-0.37146815 16.04280837 -0.33888133 12.8922714 -0.25 8.125 C-0.20552734 6.949375 -0.20552734 6.949375 -0.16015625 5.75 C-0.090054 3.83387193 -0.04269342 1.91693463 0 0 Z " fill="#0B52AF" transform="translate(215,549)"/>
<path d="M0 0 C4.29 0 8.58 0 13 0 C13.33 16.5 13.66 33 14 50 C16.64 47.69 19.28 45.38 22 43 C28.68341584 38.77171651 36.30778615 39.16319013 44 40 C50.59007788 41.86316338 54.87739939 45.23080497 58.84375 50.7421875 C62.40532079 57.6968764 62.26709201 64.40048993 62.1953125 72.05859375 C62.1924826 73.20288345 62.18965271 74.34717316 62.18673706 75.52613831 C62.17558578 79.16336743 62.15049014 82.80034591 62.125 86.4375 C62.11496369 88.91080372 62.10583898 91.38411132 62.09765625 93.85742188 C62.07566292 99.90504377 62.0411676 105.95247946 62 112 C57.71 112 53.42 112 49 112 C48.98598145 109.9271875 48.98598145 109.9271875 48.97167969 107.8125 C48.9316566 102.66097371 48.86586299 97.51003688 48.79248047 92.35888672 C48.76434228 90.13402914 48.74309235 87.90907293 48.72900391 85.68408203 C48.70747568 82.47637697 48.66077322 79.26984897 48.609375 76.0625 C48.60814636 75.07572266 48.60691772 74.08894531 48.60565186 73.07226562 C48.47099791 66.65068924 47.35395234 62.50691235 44 57 C40.64784587 54.01404758 36.44417231 52.77994786 32 52.5 C27.43464204 52.78701661 23.62520058 54.20363802 20 57 C16.19985251 61.67493392 13.91643344 66.30924693 13.79467773 72.37963867 C13.77473251 73.26032516 13.75478729 74.14101166 13.73423767 75.04838562 C13.70916893 76.46882927 13.70916893 76.46882927 13.68359375 77.91796875 C13.66281265 78.89034988 13.64203156 79.86273102 13.62062073 80.86457825 C13.55521252 83.97214665 13.49628071 87.07979985 13.4375 90.1875 C13.39430649 92.29362858 13.35069193 94.39974856 13.30664062 96.50585938 C13.19954001 101.67048591 13.09824781 106.83519778 13 112 C8.71 112 4.42 112 0 112 C0 75.04 0 38.08 0 0 Z " fill="#014AAC" transform="translate(1050,455)"/>
<path d="M0 0 C6.21325288 6.87951192 7.59817651 13.15685672 7.34765625 22.26953125 C6.68782715 29.66511575 3.74267296 35.53707032 -1.93359375 40.421875 C-6.54440998 43.27365151 -10.54097495 43.93899451 -15.87109375 43.859375 C-16.58185059 43.85107666 -17.29260742 43.84277832 -18.02490234 43.83422852 C-24.68113391 43.61839641 -27.82115699 42.43226466 -32.6015625 37.80859375 C-38.77756348 31.19249769 -39.32707281 24.67015023 -39.1875 15.83984375 C-38.70343872 9.32363418 -36.62426457 4.11254582 -31.93359375 -0.578125 C-22.29312945 -7.38857233 -9.41014635 -7.68020025 0 0 Z " fill="#FBFCFD" transform="translate(878.93359375,512.578125)"/>
<path d="M0 0 C5.15162606 4.55282082 8.60512796 9.23953252 9.3359375 16.19921875 C9.42989452 24.5895804 9.16823022 32.35788746 3.31640625 38.875 C1.60124764 40.40942146 -0.07057485 41.74756613 -2 43 C-2.57234375 43.37253906 -3.1446875 43.74507812 -3.734375 44.12890625 C-9.66817834 46.41035133 -18.76104877 46.13928226 -24.6875 44.0546875 C-30.66245959 40.45613229 -34.25946636 35.34410826 -37 29 C-37.84524914 21.08374191 -38.09846596 12.38084542 -33.3671875 5.69140625 C-24.46623724 -5.21662103 -12.28474238 -7.27759491 0 0 Z " fill="#FCFDFE" transform="translate(648,511)"/>
<path d="M0 0 C4.29 0 8.58 0 13 0 C13 6.6 13 13.2 13 20 C19.27 20 25.54 20 32 20 C32 23.63 32 27.26 32 31 C25.73 31 19.46 31 13 31 C13.09703198 36.747868 13.19982345 42.49503128 13.31738281 48.24243164 C13.35561789 50.19679509 13.39048027 52.15122759 13.421875 54.10571289 C13.46764435 56.91838222 13.52561923 59.73057839 13.5859375 62.54296875 C13.59748871 63.41398727 13.60903992 64.2850058 13.62094116 65.18241882 C13.72535877 69.49410383 13.84716888 73.13858034 16 77 C19.06533164 78.53266582 22.26754272 78.10276471 25.625 78.0625 C26.68460938 78.05573242 26.68460938 78.05573242 27.765625 78.04882812 C29.51045275 78.03703875 31.255237 78.01910324 33 78 C33 81.96 33 85.92 33 90 C14.76148949 94.1688024 14.76148949 94.1688024 6.88237 89.40966797 C2.86322503 86.3998134 0.39003942 82.35129953 -0.43252563 77.39257812 C-0.5762346 74.41542965 -0.56289754 71.47964317 -0.48828125 68.5 C-0.47766914 66.88557007 -0.47766914 66.88557007 -0.46684265 65.23852539 C-0.43901329 61.82495522 -0.37629342 58.41306842 -0.3125 55 C-0.28740245 52.67580506 -0.26459185 50.35158422 -0.24414062 48.02734375 C-0.18922367 42.35092094 -0.10302822 36.67574517 0 31 C-5.28 31 -10.56 31 -16 31 C-16 27.37 -16 23.74 -16 20 C-10.72 20 -5.44 20 0 20 C0 13.4 0 6.8 0 0 Z " fill="#024BAC" transform="translate(1000,477)"/>
<path d="M0 0 C5.73448875 2.01210132 9.98506846 6.71465806 14.25 10.875 C14.75772949 11.36838867 15.26545898 11.86177734 15.78857422 12.37011719 C20.10472809 16.744771 23.65493752 21.23950014 24.4375 27.5 C23.20945284 37.3243773 16.88780933 43.38770305 10 50 C7.00056095 48.65427113 4.91923821 47.16462899 2.60839844 44.83544922 C1.9680365 44.19493622 1.32767456 43.55442322 0.66790771 42.89450073 C-0.01140808 42.20486237 -0.69072388 41.515224 -1.390625 40.8046875 C-2.09523865 40.09724396 -2.79985229 39.38980042 -3.52581787 38.66091919 C-5.7719539 36.40360138 -8.01103009 34.13942367 -10.25 31.875 C-11.77297717 30.34199047 -13.29640939 28.80943285 -14.8203125 27.27734375 C-18.55216815 23.52345427 -22.27825351 19.76391086 -26 16 C-24.3496766 12.4964559 -22.44756481 10.17900975 -19.6875 7.4375 C-18.92824219 6.67308594 -18.16898437 5.90867187 -17.38671875 5.12109375 C-11.78389502 0.14182487 -7.36856374 -1.13537192 0 0 Z " fill="#014BAC" transform="translate(345,430)"/>
<path d="M0 0 C0.96421875 0.00644531 1.9284375 0.01289063 2.921875 0.01953125 C5.25 0.1875 5.25 0.1875 6.25 1.1875 C6.32271741 3.54063555 6.33370868 5.89583668 6.3125 8.25 C6.30347656 9.54035156 6.29445313 10.83070313 6.28515625 12.16015625 C6.27355469 13.15917969 6.26195312 14.15820312 6.25 15.1875 C5.404375 15.14109375 4.55875 15.0946875 3.6875 15.046875 C-6.23856287 14.68315835 -6.23856287 14.68315835 -14.75 19.1875 C-18.83589053 24.18477965 -20.81601937 28.95753954 -20.95532227 35.40527344 C-20.97526749 36.22582214 -20.99521271 37.04637085 -21.01576233 37.89178467 C-21.03247482 38.76796448 -21.04918732 39.64414429 -21.06640625 40.546875 C-21.08718735 41.45125305 -21.10796844 42.3556311 -21.12937927 43.28741455 C-21.1946594 46.17070055 -21.25365952 49.0540761 -21.3125 51.9375 C-21.35570571 53.89454044 -21.39932065 55.85157188 -21.44335938 57.80859375 C-21.55031872 62.6014712 -21.65164673 67.39443854 -21.75 72.1875 C-26.04 72.1875 -30.33 72.1875 -34.75 72.1875 C-34.75 49.0875 -34.75 25.9875 -34.75 2.1875 C-30.46 2.1875 -26.17 2.1875 -21.75 2.1875 C-21.75 5.4875 -21.75 8.7875 -21.75 12.1875 C-21.09 12.1875 -20.43 12.1875 -19.75 12.1875 C-19.66234375 11.59195312 -19.5746875 10.99640625 -19.484375 10.3828125 C-18.55026215 7.59041131 -17.37250512 6.7660657 -15 5.0625 C-14.32453125 4.56492187 -13.6490625 4.06734375 -12.953125 3.5546875 C-8.59817238 0.85214598 -5.12397793 -0.07616724 0 0 Z " fill="#034CAD" transform="translate(805.75,494.8125)"/>
<path d="M0 0 C6.1565625 -0.0928125 6.1565625 -0.0928125 12.4375 -0.1875 C13.71294678 -0.21481201 14.98839355 -0.24212402 16.30249023 -0.27026367 C23.83694656 -0.3248995 31.08616271 -0.18353794 37.15625 4.75390625 C37.5996875 5.35074219 38.043125 5.94757813 38.5 6.5625 C38.9640625 7.16191406 39.428125 7.76132812 39.90625 8.37890625 C42.79375151 12.65859599 42.42472157 16.98056327 42 22 C40.33444786 26.7336745 38.19393323 29.26906674 34 32 C29.61889761 33.74886073 25.99171606 34.23845611 21.2890625 34.1953125 C19.60611084 34.18781982 19.60611084 34.18781982 17.88916016 34.18017578 C15.77840088 34.15286377 15.77840088 34.15286377 13.625 34.125 C9.12875 34.08375 4.6325 34.0425 0 34 C0 22.78 0 11.56 0 0 Z " fill="#F8FAFC" transform="translate(449,474)"/>
<path d="M0 0 C0.3885315 7.02234709 0.55522741 13.98504491 -4.359375 19.53515625 C-10.41521124 24.88864034 -16.08679484 25.44390257 -23.890625 25.3203125 C-28.18187988 24.87824856 -29.92806383 23.98891087 -33 21 C-35.58536545 17.59201828 -35.43781946 14.1592849 -35 10 C-31.75801557 4.51356482 -27.0836354 2.44686857 -21.125 0.8125 C-14.21152159 -0.6273122 -7.02223502 -0.15509231 0 0 Z " fill="#F9FAFD" transform="translate(962,533)"/>
<path d="M0 0 C0.38988222 7.04676014 0.51962625 13.91972532 -4.32421875 19.53515625 C-10.27916724 24.89617287 -16.44791318 25.45406851 -24.1484375 25.3203125 C-28.26628634 24.85775962 -30.00472152 23.83763224 -33 21 C-35.58536545 17.59201828 -35.43781946 14.1592849 -35 10 C-31.75801557 4.51356482 -27.0836354 2.44686857 -21.125 0.8125 C-14.21152159 -0.6273122 -7.02223502 -0.15509231 0 0 Z " fill="#F9FBFD" transform="translate(565,533)"/>
<path d="M0 0 C4.0549825 2.47659146 6.90897824 6.00261866 8.4375 10.5 C8.4375 13.14 8.4375 15.78 8.4375 18.5 C-5.0925 18.5 -18.6225 18.5 -32.5625 18.5 C-32.5625 11.06559365 -30.88354278 7.82104278 -25.71875 2.65625 C-18.43427763 -3.10609382 -8.51027136 -3.57818228 0 0 Z " fill="#FCFDFE" transform="translate(731.5625,507.5)"/>
</svg>
